<svg xmlns="http://www.w3.org/2000/svg" xml:space="preserve" viewBox="0 0 112.4 10.5" width="100%" height="100%"><path fill="#000" d="M13.9.3C6.2.3 0 2.7 0 5.6c0 1.9 2.7 3.6 6.8 4.6.8-1.6 1.7-2.8 2.2-3.3-2.3-.6-3.8-1.6-3.8-2.7C5.2 2.4 9.1 1 13.9 1c4.8 0 8.7 1.4 8.7 3.2 0 1.1-1.5 2.1-3.8 2.7.5.6 1.4 1.7 2.2 3.3 4.1-.9 6.8-2.6 6.8-4.6 0-2.9-6.2-5.3-13.9-5.3M97.8 7.2c0 .5-.3.9-1 .9h-1.6V6.4h1.6c.7 0 1 .3 1 .8m-.2-4c0 .5-.3.8-.9.8h-1.5V2.4h1.5c.6 0 .9.3.9.8m1.8 1.9c.4-.5.8-1.1.8-1.9C100.2 1.4 99 0 97 0h-4.2v10.5h4.4c1.9 0 3.2-1.3 3.2-3.3-.1-.9-.5-1.6-1-2.1M101.8 0h2v10.5h-2zM112.4 10.5l-.1-2.4h-3.7l3.7-6.2V0h-6.7v2.4h3.6l-3.8 6.2v1.9zM39.9 1.6V.3h-6.3v9.9h1.5V6h4.1V4.7h-4.1V1.6zM46 6.9h-3l1.5-4.4L46 6.9zm2.7 3.3L45.1.3h-1.2l-3.6 9.9h1.6l.7-2h3.9l.7 2h1.5zM56.6 7.4c0-.8-.3-1.6-.8-2-.4-.4-.9-.6-1.8-.7l-1.1-.2c-.5-.1-.9-.2-1.1-.5-.3-.2-.4-.6-.4-.9 0-.9.6-1.5 1.8-1.5.8 0 1.5.2 2.2.8l1-.9C55.6.7 54.6.4 53.3.4 51.2.4 50 1.6 50 3.3c0 .8.2 1.4.7 1.9.4.4 1.1.7 1.9.8l1.2.2c.6.1.8.2 1.1.4s.4.6.4 1c0 1-.8 1.5-2 1.5-1 0-1.8-.2-2.5-.9l-1 1c.9 1 2 1.3 3.5 1.3 1.8-.2 3.3-1.3 3.3-3.1M65.6 10.2V.3h-1.5v4.2h-4V.3h-1.5v9.9h1.5V5.9h4v4.3zM68.2.3h1.5v9.9h-1.5zM77.6 5.2c0 2-.1 2.5-.6 3.1-.3.4-.9.6-1.5.6s-1.1-.2-1.5-.6c-.5-.5-.6-1.1-.6-3.1s.1-2.5.6-3.1c.3-.4.9-.6 1.5-.6s1.1.2 1.5.6c.5.6.6 1.2.6 3.1m1.5 0c0-1.9 0-3-.9-4C77.5.5 76.6.1 75.6.1c-1.1 0-1.9.4-2.6 1.1-1 1-1 2.1-1 4s0 3 1 4c.7.7 1.5 1.1 2.6 1.1s1.9-.4 2.6-1.1c.9-.9.9-2 .9-4M88.7 10.2V.3h-1.5v7l-4.5-7h-1.4v9.9h1.5v-7l4.6 7z"></path></svg>
